<mxfile host="Electron" modified="2023-09-09T06:15:42.420Z" agent="Mozilla/5.0 (Macintosh; Intel Mac OS X 10_15_7) AppleWebKit/537.36 (KHTML, like Gecko) draw.io/21.6.8 Chrome/114.0.5735.289 Electron/25.5.0 Safari/537.36" etag="ZO9FUWeMDNr6gWwedabx" version="21.6.8" type="device">
  <diagram name="PÃ¡gina-1" id="3DTPJ4LlxqFyZPjGGAtB">
    <mxGraphModel dx="530" dy="374" grid="1" gridSize="10" guides="1" tooltips="1" connect="1" arrows="1" fold="1" page="1" pageScale="1" pageWidth="827" pageHeight="1169" math="0" shadow="0">
      <root>
        <mxCell id="0" />
        <mxCell id="1" parent="0" />
        <mxCell id="Ov1NDYe5rTjllrBirw_h-1" value="Form" style="rounded=0;whiteSpace=wrap;html=1;" vertex="1" parent="1">
          <mxGeometry x="40" y="120" width="120" height="60" as="geometry" />
        </mxCell>
        <mxCell id="Ov1NDYe5rTjllrBirw_h-6" style="edgeStyle=orthogonalEdgeStyle;rounded=0;orthogonalLoop=1;jettySize=auto;html=1;entryX=0.019;entryY=0.581;entryDx=0;entryDy=0;entryPerimeter=0;" edge="1" parent="1" source="Ov1NDYe5rTjllrBirw_h-2" target="Ov1NDYe5rTjllrBirw_h-3">
          <mxGeometry relative="1" as="geometry" />
        </mxCell>
        <mxCell id="Ov1NDYe5rTjllrBirw_h-7" style="edgeStyle=orthogonalEdgeStyle;rounded=0;orthogonalLoop=1;jettySize=auto;html=1;entryX=0;entryY=0.5;entryDx=0;entryDy=0;fillColor=#a20025;strokeColor=#6F0000;" edge="1" parent="1" source="Ov1NDYe5rTjllrBirw_h-2" target="Ov1NDYe5rTjllrBirw_h-4">
          <mxGeometry relative="1" as="geometry" />
        </mxCell>
        <mxCell id="Ov1NDYe5rTjllrBirw_h-2" value="Name&lt;br&gt;LastName&lt;br&gt;Birthday&lt;br&gt;email&lt;br&gt;Country&lt;br&gt;Company" style="rounded=0;whiteSpace=wrap;html=1;" vertex="1" parent="1">
          <mxGeometry x="40" y="180" width="120" height="140" as="geometry" />
        </mxCell>
        <mxCell id="Ov1NDYe5rTjllrBirw_h-3" value="Backend" style="rounded=0;whiteSpace=wrap;html=1;" vertex="1" parent="1">
          <mxGeometry x="340" y="240" width="120" height="60" as="geometry" />
        </mxCell>
        <mxCell id="Ov1NDYe5rTjllrBirw_h-9" style="edgeStyle=orthogonalEdgeStyle;rounded=0;orthogonalLoop=1;jettySize=auto;html=1;exitX=1;exitY=0.5;exitDx=0;exitDy=0;fillColor=#a20025;strokeColor=#6F0000;" edge="1" parent="1" source="Ov1NDYe5rTjllrBirw_h-4">
          <mxGeometry relative="1" as="geometry">
            <mxPoint x="410" y="380" as="targetPoint" />
          </mxGeometry>
        </mxCell>
        <mxCell id="Ov1NDYe5rTjllrBirw_h-4" value="RequestID&lt;br&gt;Body" style="rounded=0;whiteSpace=wrap;html=1;" vertex="1" parent="1">
          <mxGeometry x="200" y="360" width="90" height="40" as="geometry" />
        </mxCell>
        <mxCell id="Ov1NDYe5rTjllrBirw_h-10" value="JSON" style="shape=cylinder3;whiteSpace=wrap;html=1;boundedLbl=1;backgroundOutline=1;size=15;" vertex="1" parent="1">
          <mxGeometry x="414" y="340" width="60" height="80" as="geometry" />
        </mxCell>
        <mxCell id="Ov1NDYe5rTjllrBirw_h-15" style="edgeStyle=orthogonalEdgeStyle;rounded=0;orthogonalLoop=1;jettySize=auto;html=1;exitX=0;exitY=0.5;exitDx=0;exitDy=0;entryX=1;entryY=0.5;entryDx=0;entryDy=0;entryPerimeter=0;" edge="1" parent="1" source="Ov1NDYe5rTjllrBirw_h-14" target="Ov1NDYe5rTjllrBirw_h-10">
          <mxGeometry relative="1" as="geometry" />
        </mxCell>
        <mxCell id="Ov1NDYe5rTjllrBirw_h-14" value="IA" style="rounded=0;whiteSpace=wrap;html=1;" vertex="1" parent="1">
          <mxGeometry x="520" y="320" width="80" height="40" as="geometry" />
        </mxCell>
      </root>
    </mxGraphModel>
  </diagram>
</mxfile>
